<svg xmlns="http://www.w3.org/2000/svg" width="123" height="25" viewBox="0 0 123 25">
  <g fill="none" fill-rule="evenodd">
    <g fill="#FFFFFF" transform="translate(1.985 4.978)">
      <polygon points="7.337 .605 7.337 .605 7.238 .705"/>
      <path d="M4.08324572,3.8321743 L5.0228584,2.8909385 C5.0228584,2.8909385 5.0228584,2.85732294 4.9893008,2.85732294 L4.15036091,3.69771204 C4.11680332,3.7313276 4.08324572,3.79855873 4.08324572,3.8321743 L4.08324572,3.8321743 Z"/>
      <path d="M7.23765971,0.638695716 L4.9893008,2.85732294 C4.9893008,2.85732294 4.9893008,2.8909385 5.0228584,2.8909385 L7.23765971,0.638695716 L7.23765971,0.638695716 Z"/>
      <polygon points="2.375 6.578 2.375 6.578 2.275 6.678"/>
      <path d="M2.2753872,6.61192286 L0.0270282897,8.83055008 C0.0270282897,8.83055008 0.0270282897,8.86416564 0.0605858854,8.86416564 L2.2753872,6.61192286 L2.2753872,6.61192286 Z"/>
    </g>
    <path fill="#00BE59" d="M13.5392191,9.51210907 C13.6220053,9.59529707 13.7342933,9.6420336 13.8512476,9.6420336 C13.9682018,9.6420336 14.0804899,9.59529707 14.163276,9.51210907 C14.6276309,9.04534877 14.944777,8.71123551 15.2244436,8.41629624 C15.4410422,8.18790737 15.6343102,7.9838699 15.8566285,7.76062356 C15.949349,7.66760425 15.9961608,7.53783097 15.9842697,7.40669644 C15.9722281,7.27571315 15.9029888,7.15667869 15.7953668,7.08211199 C13.7662036,5.67608355 11.715215,1.66112822 11.1346585,0.463674782 C11.0220694,0.23165589 10.8023099,0.0782874697 10.5471781,0.0539360736 C10.2932504,0.0292821757 10.0494077,0.137729076 9.89542549,0.343581561 C8.60411246,2.07328694 4.0895593,7.90204316 0.212007739,10.284245 C0.0965587254,10.3551816 0.0197934098,10.4752748 0.00383826578,10.6101907 C-0.0121168783,10.7451065 0.0343938718,10.8800223 0.130124736,10.9762179 C0.934504828,11.7845027 2.61867564,13.9068554 2.63553391,13.9280306 C2.71862108,14.0329987 2.84445598,14.0945578 2.97811795,14.0953141 L2.98067679,14.0953141 C3.11313459,14.0953141 3.23866846,14.0354187 3.3223577,13.9322656 L10.4211926,5.19404691 C10.9164042,6.13134879 11.9846462,7.94938469 13.5392191,9.51210907" opacity=".9"/>
    <path fill="#009D63" d="M18.5904672,10.2355875 C18.50738,10.1307707 18.3813946,10.0692115 18.2478832,10.0686065 C18.1215967,10.0663378 17.9879347,10.1275944 17.9033424,10.231655 L10.804658,18.9695712 C10.3094464,18.0322693 9.24135489,16.2142334 7.68663147,14.6516603 C7.60399587,14.5684723 7.49170778,14.5217357 7.37475356,14.5217357 C7.25764882,14.5217357 7.14536073,14.568321 7.06257461,14.6516603 C6.59671451,15.1194793 6.27926735,15.4546513 5.99899869,15.7500444 C5.7833032,15.9773745 5.59078783,16.180807 5.3695231,16.4031458 C5.27680264,16.4963163 5.22999085,16.6259384 5.24188195,16.7569217 C5.25392357,16.8880562 5.32301235,17.0070907 5.43093535,17.0818086 C7.45994801,18.487837 9.51063558,22.5026411 10.0911921,23.7000946 C10.2039317,23.9322647 10.4236913,24.0853306 10.678522,24.1098333 C10.7023042,24.112102 10.7259359,24.113312 10.7492665,24.113312 C10.9774552,24.113312 11.1907423,24.0069827 11.3304251,23.8200365 C12.6214371,22.0906337 17.1353882,16.2623312 21.0138429,13.8795244 C21.1294424,13.8085877 21.2060572,13.6883432 21.2220123,13.5535787 C21.2379675,13.4185116 21.1914567,13.2837471 21.0957259,13.1877027 C20.2913458,12.3792666 18.6073255,10.2570652 18.5904672,10.2355875" opacity=".7"/>
    <path fill="#FFFFFF" d="M63.3013566 14.0496363C63.3013566 14.6082059 63.2151085 15.119434 63.0448701 15.5683467 62.8752338 16.0157468 62.6429811 16.3968991 62.3542833 16.7012159 62.0660371 17.005079 61.7236036 17.2452655 61.336315 17.4151202 60.56234 17.7542248 59.6312219 17.7534685 58.8446032 17.4148177 58.4502402 17.2451142 58.1005817 17.0011465 57.8052611 16.6901746 57.5091878 16.3785978 57.269409 15.9932105 57.0920962 15.544449 56.9149339 15.0967463 56.8250733 14.5936858 56.8250733 14.0496363L56.8250733 14.0051685C56.8250733 13.461119 56.9149339 12.9622935 57.0919457 12.5221534 57.2692585 12.0801982 57.5094888 11.6940547 57.8063147 11.3746127 58.1019364 11.0565321 58.4512939 10.8092369 58.8446032 10.6401383 59.2386652 10.4702836 59.6599713 10.3842218 60.0964799 10.3842218 60.532236 10.3842218 60.9493275 10.4701323 61.336315 10.6398358 61.72255 10.8090856 62.0646824 11.0527508 62.3532297 11.3634202 62.6422285 11.675602 62.8750833 12.0611406 63.0448701 12.508692 63.2151085 12.9574535 63.3013566 13.461119 63.3013566 14.0051685L63.3013566 14.0496363zM64.5648234 9.39428461C64.0443244 8.86399893 63.4443508 8.45698274 62.7819113 8.18488236 62.1190202 7.91247947 61.4239178 7.77423614 60.7161717 7.77423614 59.7489287 7.77423614 58.9267873 7.99521372 58.2724758 8.43096758 57.7441498 8.78292844 57.2809991 9.20779224 56.8914528 9.69784518L56.8914528 3.86107266 53.9400521 3.86107266 53.9400521 20.0358447 56.5050673 20.0358447C56.718505 20.0358447 56.8914528 19.8620574 56.8914528 19.6475836L56.8914528 18.4617765C57.2698606 18.8979841 57.7257864 19.2918415 58.251403 19.6357861 58.9055639 20.0636749 59.7349304 20.2805687 60.7161717 20.2805687 61.4243694 20.2805687 62.1227832 20.1423253 62.7925982 19.8700737 63.4639185 19.5970658 64.0676551 19.1898984 64.5869499 18.660369 65.1060941 18.1315958 65.5254435 17.4728981 65.8337089 16.7027285 66.1410712 15.9330126 66.2973112 15.040481 66.2973112 14.0496363L66.2973112 14.0051685C66.2973112 13.0131138 66.1374587 12.1202797 65.8222694 11.3510176 65.5073811 10.5825117 65.0844192 9.92411654 64.5648234 9.39428461L64.5648234 9.39428461zM72.5871601 8.5595611C72.0407717 8.98941618 71.5881574 9.53724697 71.2371442 10.1929197L71.2371442 8.40725144C71.2371442 8.19277765 71.064046 8.01899036 70.8506083 8.01899036L68.2855931 8.01899036 68.2855931 20.035875 71.2371442 20.035875 71.2371442 15.4284698C71.2371442 14.6607202 71.3315204 13.9868974 71.5177139 13.4260591 71.7019507 12.8700607 71.9677694 12.4002754 72.307343 12.0300132 72.645562 11.6620197 73.0530202 11.3820543 73.5184288 11.1976794 73.9872993 11.0122458 74.513819 10.9181678 75.0838391 10.9181678L75.3756978 10.9181678 75.3756978 7.80209656 75.2447452 7.79665153C74.1826745 7.74915874 73.2890359 8.00779779 72.5871601 8.5595611M85.8886928 14.0939528C85.8886928 14.5796195 85.8095191 15.0468335 85.6535802 15.4819824 85.4977917 15.9154675 85.2687 16.3002498 84.9729277 16.6254392 84.6779081 16.9506287 84.3166595 17.2128978 83.8994175 17.4049864 83.4836806 17.5958651 83.0077356 17.6928169 82.4846778 17.6928169 81.9906705 17.6928169 81.529627 17.5958651 81.1141912 17.4051377 80.6972501 17.2132003 80.3323891 16.9471499 80.0295424 16.6140954 79.725341 16.2805872 79.4849602 15.8871836 79.3147219 15.4455309 79.1447845 15.0041808 79.0585364 14.5345467 79.0585364 14.0496363L79.0585364 14.0051685C79.0585364 13.5043768 79.1377101 13.0299027 79.2937996 12.5950563 79.4486849 12.1630837 79.6773251 11.7825364 79.9732479 11.4636995 80.2690201 11.1451651 80.6304192 10.8863748 81.0478118 10.6939837 81.4630971 10.5032563 81.931516 10.4063044 82.4402744 10.4063044 82.9487317 10.4063044 83.4173012 10.5032563 83.833038 10.6939837 84.2499791 10.8863748 84.6152917 11.1489464 84.9187404 11.4750433 85.2221892 11.8012916 85.4624195 12.1904601 85.6325073 12.6313565 85.8024447 13.0730092 85.8886928 13.5500545 85.8886928 14.0496363L85.8886928 14.0939528zM87.0409251 9.60482587C86.478431 9.03960123 85.8009395 8.58811727 85.027115 8.26292782 84.2532905 7.93879713 83.3977335 7.77423614 82.4846778 7.77423614 81.5714716 7.77423614 80.7157641 7.94242715 79.941187 8.27457414 79.1687172 8.60626738 78.4913762 9.06138136 77.9287316 9.62705976 77.3653344 10.1931919 76.9161821 10.8623259 76.5939182 11.6157067 76.2707513 12.3704487 76.1068348 13.1894724 76.1068348 14.0496363L76.1068348 14.0939528C76.1068348 14.9385379 76.2668378 15.7496965 76.5823282 16.5045898 76.8979691 17.2600881 77.3436595 17.9257433 77.9072072 18.4838591 78.4701529 19.0422775 79.1473434 19.4898289 79.9201142 19.8139596 80.6933366 20.1382416 81.5413676 20.3028026 82.4402744 20.3028026 83.3534806 20.3028026 84.2129511 20.1346115 84.9947531 19.8027671 85.7748995 19.4710738 86.455853 19.0158086 87.0186481 18.4499789 87.5817443 17.8841493 88.0307461 17.2150153 88.353311 16.4608783 88.6764779 15.705985 88.8403944 14.8948264 88.8403944 14.0496363L88.8403944 14.0051685C88.8403944 13.1456096 88.6803914 12.3306697 88.3647505 11.582734 88.0492601 10.835857 87.6038708 10.170353 87.0409251 9.60482587L87.0409251 9.60482587zM121.876107 7.79666665C120.813585 7.74917387 119.920398 8.00781292 119.218823 8.55957623 118.672134 8.98943131 118.21967 9.53726209 117.868657 10.1929348L117.868657 8.40726656C117.868657 8.19279278 117.695709 8.01900549 117.482271 8.01900549L114.916955 8.01900549 114.916955 20.0358901 117.868657 20.0358901 117.868657 15.4284849C117.868657 14.6607353 117.963033 13.9869125 118.149226 13.4260742 118.333463 12.8700758 118.599131 12.4002905 118.938705 12.0300283 119.277074 11.6620348 119.684834 11.3817669 120.149941 11.1976946 120.618661 11.0122609 121.145331 10.9181829 121.715502 10.9181829L122.00721 10.9181829 122.00721 7.80211168 121.876107 7.79666665zM41.1877829 13.0672465C41.3175313 12.2517016 41.6289576 11.5783326 42.1142349 11.0640795 42.6238963 10.5244163 43.2791109 10.2508034 44.0619666 10.2508034 44.4829717 10.2508034 44.8625837 10.3253701 45.1901157 10.472386 45.5170456 10.6192506 45.8031846 10.8285818 46.0404045 11.0944809 46.2791295 11.3629513 46.4714944 11.6820907 46.6125318 12.0428241 46.7373131 12.3633248 46.8250664 12.7072694 46.8735339 13.0672465L41.1877829 13.0672465zM48.3844559 9.71552641C47.9095646 9.12519412 47.3056775 8.64860251 46.5892012 8.29951542 45.8721228 7.95088208 45.0292096 7.77422102 44.0840931 7.77422102 43.2277835 7.77422102 42.4343914 7.93938701 41.7254411 8.26487896 41.0182971 8.59037091 40.396498 9.04261113 39.8782569 9.60904577 39.3595642 10.1753292 38.9519554 10.8446144 38.6668701 11.5987515 38.3817848 12.3524347 38.2375864 13.1694921 38.2375864 14.0273873L38.2375864 14.071855C38.2375864 14.9905531 38.3975894 15.8427007 38.7129293 16.604249 39.0282692 17.3668561 39.4664336 18.0291838 40.0155313 18.5730821 40.5646291 19.1172828 41.2201447 19.5462304 41.9635641 19.8478247 42.707134 20.1497215 43.5173844 20.3027874 44.3718877 20.3027874 45.4655677 20.3027874 46.4209196 20.0957249 47.2119034 19.6871962 47.6562391 19.4572949 48.3609748 18.8777014 48.7473602 18.5475207 48.9032992 18.4142686 48.9291886 18.1822497 48.8060631 18.01784L47.5760118 16.3757089 47.4855492 16.4637369C47.0255593 16.9114396 46.5536784 17.2547791 46.0827006 17.4840755 45.6169911 17.7109519 45.0563032 17.8260538 44.4159902 17.8260538 43.5822586 17.8260538 42.8632235 17.5786073 42.279205 17.0905207 41.7298062 16.6314742 41.3720196 15.9692977 41.2141239 15.1210826L49.761716 15.1210826 49.7751123 14.9985694C49.7898633 14.8628973 49.8008513 14.7311578 49.8088288 14.6025945 49.8162043 14.47388 49.8201179 14.3487955 49.8201179 14.2274922 49.8201179 13.3733784 49.6989491 12.5478509 49.459923 11.7740513 49.2193916 10.9969241 48.8576915 10.3041949 48.3844559 9.71552641L48.3844559 9.71552641zM29.8699262 12.5969621C30.032488 12.1627207 30.2582684 11.7808122 30.5412464 11.4613703 30.8219666 11.1434409 31.1651527 10.8849531 31.5605694 10.6930157 31.9532766 10.502742 32.3872265 10.4063952 32.8511298 10.4063952 33.5013772 10.4063952 34.0552916 10.5385885 34.496918 10.7988913 34.9295131 11.0545053 35.3487119 11.3883161 35.7427739 11.7913997L35.8409131 11.8918303 37.4507269 10.2268604C37.6039565 10.0683494 37.5953768 9.81303787 37.4307077 9.66647574 37.0026282 9.28517221 36.2098381 8.6089294 35.6902423 8.34514782 34.943662 7.96641554 33.9958361 7.77417564 32.8732563 7.77417564 31.9887994 7.77417564 31.1550679 7.9428204 30.3950913 8.2749674 29.6370714 8.60696314 28.9746319 9.06253087 28.4264372 9.62836052 27.8782425 10.1941902 27.4439917 10.8677105 27.1363283 11.6295613 26.828665 12.3908071 26.672726 13.2049907 26.672726 14.0495758L26.672726 14.0938923C26.672726 14.9384774 26.828665 15.7494847 27.1363283 16.5036218 27.4442927 17.2586663 27.8785436 17.9244728 28.4271898 18.4824374 28.975535 19.0411582 29.634061 19.4888609 30.3847054 19.8135966 31.1362529 20.1380298 31.9660709 20.3027421 32.8511298 20.3027421 33.4331915 20.3027421 33.9652805 20.245418 34.4326458 20.132131 34.8982049 20.0188441 35.3321547 19.8618457 35.7230557 19.665522 36.1129031 19.4696521 36.4789683 19.2321881 36.8108654 18.9593315 37.024002 18.7838804 37.2359345 18.5833217 37.4782721 18.327859L37.5571447 18.244671 36.1165156 16.2690316 36.0159681 16.1678447 35.9191836 16.2650991C35.501791 16.6845178 35.0535418 17.0325462 34.5870796 17.2993528 34.1307022 17.5602606 33.5912377 17.6927564 32.9838886 17.6927564 32.4901823 17.6927564 32.0330524 17.5962583 31.6254436 17.4055309 31.2157275 17.2137448 30.857941 16.9513245 30.5618677 16.6253787 30.2651923 16.2992818 30.032488 15.9102645 29.8700767 15.4696706 29.7069128 15.0283204 29.6239761 14.5505188 29.6239761 14.0495758L29.6239761 14.0052593C29.6239761 13.5052238 29.7067623 13.0313547 29.8699262 12.5969621M104.435088 13.0672465C104.564686 12.2517016 104.876112 11.5783326 105.361389 11.0640795 105.871201 10.5244163 106.526416 10.2508034 107.309271 10.2508034 107.730276 10.2508034 108.109888 10.3253701 108.43727 10.472386 108.7642 10.6192506 109.050339 10.8285818 109.287559 11.0944809 109.526434 11.3629513 109.718799 11.6820907 109.859686 12.0428241 109.984618 12.3633248 110.072221 12.7072694 110.120688 13.0672465L104.435088 13.0672465zM111.63161 9.71552641C111.156869 9.12519412 110.552982 8.64860251 109.836355 8.29951542 109.119277 7.95088208 108.276514 7.77422102 107.331247 7.77422102 106.475088 7.77422102 105.681546 7.93938701 104.972746 8.26487896 104.265451 8.59037091 103.643803 9.04261113 103.125411 9.60904577 102.606869 10.1753292 102.19926 10.8446144 101.914175 11.5987515 101.62909 12.3524347 101.484741 13.1694921 101.484741 14.0273873L101.484741 14.071855C101.484741 14.9905531 101.644744 15.8427007 101.960084 16.604249 102.275423 17.3668561 102.713738 18.0291838 103.262836 18.5730821 103.811934 19.1172828 104.467299 19.5462304 105.210718 19.8478247 105.954439 20.1497215 106.764689 20.3027874 107.619042 20.3027874 108.712722 20.3027874 109.668224 20.0957249 110.459208 19.6871962 110.903544 19.4572949 111.60828 18.8777014 111.994665 18.5475207 112.150604 18.4142686 112.176493 18.1822497 112.053368 18.01784L110.823166 16.3757089 110.732854 16.4637369C110.272864 16.9114396 109.800833 17.2547791 109.329855 17.4840755 108.864145 17.7109519 108.303457 17.8260538 107.663144 17.8260538 106.829413 17.8260538 106.110378 17.5786073 105.526359 17.0905207 104.97696 16.6314742 104.619324 15.9692977 104.461429 15.1210826L113.009021 15.1210826 113.022267 14.9985694C113.037018 14.8628973 113.048156 14.7311578 113.055983 14.6025945 113.063509 14.47388 113.067423 14.3487955 113.067423 14.2274922 113.067423 13.3733784 112.946254 12.5478509 112.707228 11.7740513 112.466546 10.9969241 112.104996 10.3041949 111.63161 9.71552641L111.63161 9.71552641z"/>
    <path fill="#FFFFFF" d="M101.775049,8.03166519 L98.3060094,8.03166519 C98.198538,8.03166519 98.0958832,8.07643545 98.0224293,8.15523718 L93.4869538,13.0249114 L93.4869538,3.87377774 L90.5357037,3.87377774 L90.5357037,20.0485498 L93.1004179,20.0485498 C93.3140061,20.0485498 93.4869538,19.8747625 93.4869538,19.6602887 L93.4869538,16.6083479 L94.9709327,15.0568161 L98.4354568,20.0485498 L101.866565,20.0485498 L96.9794746,12.9653185 L101.775049,8.03166519 Z"/>
  </g>
</svg>
